<?xml version="1.0" encoding="utf-8"?>
<!-- Generator: Adobe Illustrator 24.0.1, SVG Export Plug-In . SVG Version: 6.00 Build 0)  -->
<svg version="1.1" id="Layer_1" xmlns="http://www.w3.org/2000/svg" xmlns:xlink="http://www.w3.org/1999/xlink" x="0px" y="0px"
	 viewBox="0 0 100 100" style="enable-background:new 0 0 100 100;" xml:space="preserve">
<style type="text/css">
	.st0{fill:#3375BB;}
	.st1{fill:#A9B5AF;}
</style>
<g>
	<path class="st0" d="M83.5,21.8c0-4-1.4-7.3-4.3-10c-4.4-4.2-9.9-6.4-15.6-8C51.4,0.4,39.1,0.2,26.7,2.4
		c-7.4,1.3-14.5,3.5-20.4,8.4C2.9,13.6,1,17,1,21.7c0.1,18.5,0.1,37,0,55.5c0,2.8,0.8,5.3,2.6,7.4c4.1,5.2,9.9,7.6,16,9.5
		c9.6,3,19.5,3.6,29.5,2.9c2.9-0.2,5.8-0.7,8.7-1.1c1.4-0.2,2.3-1,2-2.5c-0.3-1.3-1.3-1.8-2.6-1.5c-0.4,0.1-0.7,0.1-1.1,0.2
		c-10.1,1.7-20.2,1.6-30.3-0.6c-5.7-1.2-11.3-3-16.1-6.6C7.4,83,5.4,80.9,5.2,78c-0.3-3-0.1-6-0.1-9c2.4,1.5,4.5,3.1,6.8,4.2
		c10.9,5.3,22.5,6.6,34.4,6.1c2-0.1,4.1-0.2,6.1-0.6c1.5-0.3,2.2-2.1,1.2-3c-0.7-0.6-1.8-0.8-2.8-0.8c-5.3,0-10.5,0.4-15.8,0.1
		c-7.7-0.5-15.1-2.1-22-5.8c-3.3-1.8-6.9-3.8-7.6-7.8c-0.7-3.9-0.1-7.9-0.1-11.9C16.3,58,29.1,59.9,42.3,59.9
		c13.1,0,25.9-1.9,37-10.6c0,1.7-0.1,3.1,0,4.5c0.1,1.7,1.5,2.7,2.7,1.9c0.8-0.5,1.4-1.8,1.4-2.8C83.5,42.6,83.5,32.2,83.5,21.8z
		 M78.9,42.1c-0.4,3.1-3.2,5-5.7,6.5c-6.6,4.1-13.9,5.8-21.5,6.6c-11.3,1.3-22.5,0.6-33.3-3.3c-4.1-1.4-7.8-3.3-10.8-6.5
		c-1.6-1.7-2.5-3.6-2.4-6c0.1-3.2,0-6.3,0-9.9c7.9,6.6,16.8,8.9,26.1,10.1c11.1,1.4,22.1,0.9,32.9-2.2c5.2-1.5,10.1-3.6,14.2-7.1
		c0.2-0.2,0.4-0.2,0.7-0.4C79,34,79.4,38.1,78.9,42.1z M75.3,27.4c-5.2,4.3-11.5,6.2-18,7.4c-13.2,2.4-26.2,2-38.9-2.4
		C14.1,30.9,10,29,7.1,25.3c-2.8-3.5-2.6-6.7,0.4-9.9c3.7-3.9,8.4-5.9,13.4-7.4c6.9-2.1,14-2.9,22.7-3c8.5,0.2,18.3,1.3,27.4,6
		c1.8,1,3.6,2.2,5.1,3.6C80.8,19,80.2,23.4,75.3,27.4z"/>
	<path class="st1" d="M80.7,99c-8.8,0.2-15.2-3.5-19.2-11.3c-3.9-7.7-1.7-17.4,4.9-23.3c6-5.3,15.6-6.3,22.2-2.1
		c1.4,0.9,2.6,1.9,4.3,3.2c0-1.8,0-3.3,0-4.9c0-1.3,0.7-2.3,1.9-2.1c0.8,0.2,2,1.3,2,2c0.2,4.3,0.1,8.5,0.1,13c-4.5,0-8.8,0-13.1,0
		c-1.3,0-2-0.7-2-2c0-1.3,0.9-2,2.1-2c2,0,4,0,6.4,0C88,66.3,85,64.5,81.2,64c-9.1-1.1-17.2,5.8-17.3,15.1
		c-0.2,8.6,6.4,15.6,15.5,15.8c8,0.2,14.5-6,15.6-14.6c0.1-0.4-0.1-1.1,0.1-1.3c0.7-0.6,1.4-1.5,2.2-1.5c0.5,0,1.6,1.1,1.7,1.7
		C99.7,89.1,90.6,98.8,80.7,99z"/>
</g>
</svg>
